<svg xmlns="http://www.w3.org/2000/svg" width="18" height="18" viewBox="0 0 18 18">
  <path id="menu" d="M.515-.143H11.056a.515.515,0,0,0,.515-.515h0V-2.2h0a.515.515,0,0,0-.515-.515H.515A.515.515,0,0,0,0-2.2H0v1.54H0a.515.515,0,0,0,.515.515Zm0-10.286H11.056a.515.515,0,0,0,.515-.515h0v-1.54h0A.515.515,0,0,0,11.056-13H.515A.515.515,0,0,0,0-12.485H0v1.54H0a.515.515,0,0,0,.515.515ZM17.357-7.857H.643A.643.643,0,0,0,0-7.214v1.286a.643.643,0,0,0,.643.643H17.357A.643.643,0,0,0,18-5.929V-7.214A.643.643,0,0,0,17.357-7.857Zm0,10.286H.643A.643.643,0,0,0,0,3.071V4.357A.643.643,0,0,0,.643,5H17.357A.643.643,0,0,0,18,4.357V3.071A.643.643,0,0,0,17.357,2.429Z" transform="translate(0 13)" fill="#fff"/>
</svg>
