<svg xmlns="http://www.w3.org/2000/svg" width="22" height="23" viewBox="0 0 22 23">
  <g id="Group_246" data-name="Group 246" transform="translate(-361 -132)">
    <ellipse id="Ellipse_11" data-name="Ellipse 11" cx="11" cy="11.5" rx="11" ry="11.5" transform="translate(361 132)" fill="#d90000"/>
    <path id="Path_292" data-name="Path 292" d="M1.173-3.375,2.932-5.134a.553.553,0,0,0,0-.782l-.391-.391a.553.553,0,0,0-.782,0L0-4.548-1.759-6.307a.553.553,0,0,0-.782,0l-.391.391a.553.553,0,0,0,0,.782l1.759,1.759L-2.932-1.616a.553.553,0,0,0,0,.782l.391.391a.553.553,0,0,0,.782,0L0-2.2,1.759-.443a.553.553,0,0,0,.782,0l.391-.391a.553.553,0,0,0,0-.782Z" transform="translate(372 147)" fill="#fff"/>
  </g>
</svg>
