<svg xmlns="http://www.w3.org/2000/svg" width="38.015" height="37.961" viewBox="0 0 38.015 37.961">
  <path id="_7465092_books_reading_school_icon" data-name="7465092_books_reading_school_icon" d="M37.734,35.522h-.86V31.154h.86a1.47,1.47,0,1,0,0-2.94H29.745V27.27a2.813,2.813,0,0,0-2.808-2.808H22.6V6.978a3.2,3.2,0,0,0,.878-.956h7.768L26.686,16.407H25.174a.293.293,0,1,0,0,.586h.848a5.675,5.675,0,0,0,11.341,0h.848a.293.293,0,1,0,0-.586H36.7L32.141,6.016h.717a1.577,1.577,0,0,0,0-3.155H23.519a3.167,3.167,0,0,0-5.539,0H8.229a1.577,1.577,0,1,0,0,3.155h.729L4.392,16.407H2.875a.293.293,0,1,0,0,.586h.848a5.674,5.674,0,0,0,11.341,0h.848a.293.293,0,1,0,0-.586H14.4L9.848,6.016h8.174a3.3,3.3,0,0,0,.878.962V24.462H14.562a2.813,2.813,0,0,0-2.808,2.808v.944H6.31A5.055,5.055,0,0,0,2.689,29.72a5.117,5.117,0,0,0-1.5,3.543,4.98,4.98,0,0,0,1.47,3.585,5.41,5.41,0,0,0,3.818,1.607H25.413a.777.777,0,0,0,.4.639.813.813,0,0,0,.37.1.781.781,0,0,0,.424-.125l1.3-.854a.19.19,0,0,1,.209,0l1.3.854a.789.789,0,0,0,.795.036.769.769,0,0,0,.4-.639h7.111a1.47,1.47,0,0,0,.006-2.94ZM31.693,21.868a5.114,5.114,0,0,1-5.1-4.876H36.778A5.1,5.1,0,0,1,31.693,21.868Zm-4.374-5.461,4.368-9.949,4.362,9.949ZM9.4,21.868a5.11,5.11,0,0,1-5.1-4.876H14.491A5.105,5.105,0,0,1,9.4,21.868ZM5.032,16.407,9.4,6.458l4.362,9.949ZM32.858,3.453a.992.992,0,1,1,0,1.984H23.746a3.067,3.067,0,0,0,.173-1.028,3.139,3.139,0,0,0-.149-.956h9.088ZM8.229,5.437a.992.992,0,0,1,0-1.984h9.5a3.169,3.169,0,0,0-.149.956,3.253,3.253,0,0,0,.173,1.028Zm9.937-1.028A2.584,2.584,0,1,1,20.747,6.99,2.587,2.587,0,0,1,18.165,4.409Zm2.581,3.167a3.2,3.2,0,0,0,1.267-.263V24.462H19.492V7.313A3.124,3.124,0,0,0,20.747,7.576ZM30.63,35.522V33.634h5.659v1.888Zm5.659-2.48H22.8a.293.293,0,1,0,0,.586h2.611v1.888H6.424A2.261,2.261,0,0,1,4.141,33.55,2.167,2.167,0,0,1,4.7,31.865a2.191,2.191,0,0,1,1.613-.717H36.288ZM12.339,27.27a2.226,2.226,0,0,1,2.223-2.223H26.931a2.226,2.226,0,0,1,2.223,2.223v.944H12.339ZM3.078,36.436a4.394,4.394,0,0,1-1.3-3.167A4.54,4.54,0,0,1,6.31,28.8H37.728a.884.884,0,0,1,0,1.769H6.31A2.769,2.769,0,0,0,3.562,33.61,2.849,2.849,0,0,0,6.424,36.1H25.413V37.87H6.478A4.782,4.782,0,0,1,3.078,36.436Zm26.966,1.978a.2.2,0,0,1-.3.161l-1.3-.854a.78.78,0,0,0-.848,0l-1.3.854a.178.178,0,0,1-.2.006.191.191,0,0,1-.1-.167v-4.78h4.051v4.78Zm7.69-.538h-7.1V36.107h7.1a.884.884,0,0,1,0,1.769Z" transform="translate(-1.189 -1.23)" fill="#fff"/>
</svg>
