<svg xmlns="http://www.w3.org/2000/svg" width="22.524" height="14.665" viewBox="0 0 22.524 14.665">
  <path id="_3586360_email_envelope_mail_send_icon" data-name="3586360_email_envelope_mail_send_icon" d="M29.468,35.532a.388.388,0,0,0,.021-.12V21.531a.385.385,0,0,0-.021-.121c0-.005,0-.01,0-.016a.39.39,0,0,0-.072-.12s0-.005,0-.008l0,0a.393.393,0,0,0-.115-.084l-.009-.005a.386.386,0,0,0-.134-.032H7.331a.391.391,0,0,0-.135.033l-.007,0a.387.387,0,0,0-.117.085l0,0s0,0,0,.007a.392.392,0,0,0-.072.12c0,.005,0,.01,0,.016a.385.385,0,0,0-.021.121V35.413a.388.388,0,0,0,.021.122l0,.015a.392.392,0,0,0,.073.121l0,.007.005,0a.4.4,0,0,0,.042.037l.019.016a.363.363,0,0,0,.055.031l.014.007a.392.392,0,0,0,.154.032H29.1a.388.388,0,0,0,.154-.032l.021-.011a.4.4,0,0,0,.047-.027l.022-.019a.359.359,0,0,0,.038-.034l.007-.006s0-.005,0-.008a.392.392,0,0,0,.072-.12A.144.144,0,0,0,29.468,35.532ZM7.748,22.42l6.6,6.026-6.6,6.074Zm13.521,5.73a.374.374,0,0,0-.079.058c-.009.009-.011.022-.019.032l-2.945,2.69-9.86-9.006h19.72Zm-6.343.826,3.036,2.773a.391.391,0,0,0,.529,0l3-2.739,6.6,6.01H8.361Zm7.144-.5L28.7,22.42V34.525Z" transform="translate(-6.964 -21.139)" fill="#165248"/>
</svg>
