<svg xmlns="http://www.w3.org/2000/svg" width="20.812" height="22.882" viewBox="0 0 20.812 22.882">
  <g id="layer1" transform="translate(-5.217 -2.849)">
    <g id="g4516" transform="translate(5.217 2.849)">
      <path id="rect51" d="M-.608-1H19.419a.392.392,0,0,1,.392.392V19.946a.392.392,0,0,1-.392.392H-.608A.392.392,0,0,1-1,19.946V-.608A.392.392,0,0,1-.608-1Zm19.635.784H-.216v19.77H19.027Z" transform="translate(1 2.544)" fill="#165248"/>
      <path id="line53" d="M20.027-.216H0V-1H20.027Z" transform="translate(0.392 6.91)" fill="#165248"/>
      <path id="rect55" d="M-.608-1H2.479a.392.392,0,0,1,.392.392v2.9a.392.392,0,0,1-.392.392H-.608A.392.392,0,0,1-1,2.291v-2.9A.392.392,0,0,1-.608-1Zm2.695.784h-2.3V1.9h2.3Z" transform="translate(3.296 9.244)" fill="#165248"/>
      <path id="rect57" d="M-.608-1H2.479a.392.392,0,0,1,.392.392v2.9a.392.392,0,0,1-.392.392H-.608A.392.392,0,0,1-1,2.291v-2.9A.392.392,0,0,1-.608-1Zm2.695.784h-2.3V1.9h2.3Z" transform="translate(3.296 15.418)" fill="#165248"/>
      <path id="rect59" d="M-.608-1H2.479a.392.392,0,0,1,.392.392v2.9a.392.392,0,0,1-.392.392H-.608A.392.392,0,0,1-1,2.291v-2.9A.392.392,0,0,1-.608-1Zm2.695.784h-2.3V1.9h2.3Z" transform="translate(9.47 9.244)" fill="#165248"/>
      <path id="rect61" d="M-.608-1H2.479a.392.392,0,0,1,.392.392v2.9a.392.392,0,0,1-.392.392H-.608A.392.392,0,0,1-1,2.291v-2.9A.392.392,0,0,1-.608-1Zm2.695.784h-2.3V1.9h2.3Z" transform="translate(9.47 15.418)" fill="#165248"/>
      <path id="rect63" d="M-.608-1H2.479a.392.392,0,0,1,.392.392v2.9a.392.392,0,0,1-.392.392H-.608A.392.392,0,0,1-1,2.291v-2.9A.392.392,0,0,1-.608-1Zm2.695.784h-2.3V1.9h2.3Z" transform="translate(15.644 9.244)" fill="#165248"/>
      <path id="rect65" d="M-.608-1H2.479a.392.392,0,0,1,.392.392v2.9a.392.392,0,0,1-.392.392H-.608A.392.392,0,0,1-1,2.291v-2.9A.392.392,0,0,1-.608-1Zm2.695.784h-2.3V1.9h2.3Z" transform="translate(15.644 15.418)" fill="#165248"/>
      <path id="line67" d="M16.037-.216H0V-1H16.037Z" transform="translate(2.387 20.764)" fill="#165248"/>
      <path id="line69" d="M-.57,1.328A.392.392,0,0,1-.962.945L-1-.6A.392.392,0,0,1-.617-1a.392.392,0,0,1,.4.382L-.178.926a.392.392,0,0,1-.382.4Z" transform="translate(4.689 1)" fill="#165248"/>
      <path id="line71" d="M-.608,1.328A.392.392,0,0,1-1,.936V-.608A.392.392,0,0,1-.608-1a.392.392,0,0,1,.392.392V.936A.392.392,0,0,1-.608,1.328Z" transform="translate(16.736 1)" fill="#165248"/>
    </g>
  </g>
</svg>
