<svg xmlns="http://www.w3.org/2000/svg" width="17.932" height="20.117" viewBox="0 0 17.932 20.117">
  <g id="logout" transform="translate(-5.93 -2)">
    <line id="Line_13" data-name="Line 13" x2="9.34" transform="translate(13.108 12.059)" fill="none" stroke="#deab52" stroke-linecap="round" stroke-linejoin="round" stroke-width="2"/>
    <path id="Path_266" data-name="Path 266" d="M18.863,18.525v2.155H7.367V3.437h11.5V5.592H20.3V2.718A.718.718,0,0,0,19.581,2H6.648a.718.718,0,0,0-.718.718V21.4a.718.718,0,0,0,.718.718H19.581A.718.718,0,0,0,20.3,21.4V18.525Z" fill="#fff"/>
    <line id="Line_14" data-name="Line 14" x1="2.874" y2="2.874" transform="translate(19.574 12.059)" fill="none" stroke="#deab52" stroke-linecap="round" stroke-linejoin="round" stroke-width="2"/>
    <line id="Line_15" data-name="Line 15" x1="2.874" y1="2.874" transform="translate(19.574 9.185)" fill="none" stroke="#deab52" stroke-linecap="round" stroke-linejoin="round" stroke-width="2"/>
    <line id="Line_16" data-name="Line 16" y1="1.437" transform="translate(19.574 4.939)" fill="none" stroke="#deab52" stroke-linecap="round" stroke-linejoin="round" stroke-width="2"/>
    <line id="Line_17" data-name="Line 17" y1="1.437" transform="translate(19.574 17.807)" fill="none" stroke="#deab52" stroke-linecap="round" stroke-linejoin="round" stroke-width="2"/>
  </g>
</svg>
