<svg xmlns="http://www.w3.org/2000/svg" width="17.529" height="21.91" viewBox="0 0 17.529 21.91">
  <g id="Layer_19" data-name="Layer 19" transform="translate(-4 -1)">
    <path id="Path_231" data-name="Path 231" d="M13.843,12.686a5.843,5.843,0,1,1,5.843-5.843A5.843,5.843,0,0,1,13.843,12.686Zm0-10.225a4.382,4.382,0,1,0,4.382,4.382A4.382,4.382,0,0,0,13.843,2.461Z" transform="translate(-1.078)" fill="#deab52"/>
    <path id="Path_232" data-name="Path 232" d="M17.877,27.481H7.652A3.652,3.652,0,0,1,4,23.829V20.908a.73.73,0,0,1,.358-.628L8.01,18.088a.73.73,0,0,1,.73,1.256L5.461,21.324v2.505A2.191,2.191,0,0,0,7.652,26.02H17.877a2.191,2.191,0,0,0,2.191-2.191V21.324l-3.294-1.979a.73.73,0,1,1,.73-1.256l3.652,2.191a.73.73,0,0,1,.372.628v2.922A3.652,3.652,0,0,1,17.877,27.481Z" transform="translate(0 -4.57)" fill="#fff"/>
  </g>
</svg>
