<svg xmlns="http://www.w3.org/2000/svg" width="25.598" height="26.154" viewBox="0 0 25.598 26.154">
  <g id="_21" data-name="21" transform="translate(-47.801 -43.273)">
    <path id="Path_254" data-name="Path 254" d="M111.765,53.332V43.69a.416.416,0,0,0-.416-.416h-1.388a1.93,1.93,0,0,0-1.928,1.928v8.512a1.93,1.93,0,0,0,1.928,1.928h.239a.416.416,0,1,0,0-.833h-.239a1.1,1.1,0,0,1-1.095-1.095V45.2a1.1,1.1,0,0,1,1.095-1.095h.972v9.226a.416.416,0,1,0,.833,0Z" transform="translate(-56.529)" fill="#fff"/>
    <path id="Path_255" data-name="Path 255" d="M185.595,54.748l7.425,2.629V59.2a.416.416,0,1,0,.833,0V57.5h1.128a.708.708,0,0,1,.707.707v1.466a.416.416,0,1,0,.833,0V58.206a1.542,1.542,0,0,0-1.54-1.54h-1.473l-7.635-2.7a.416.416,0,1,0-.278.785Z" transform="translate(-129.062 -10.009)" fill="#fff"/>
    <path id="Path_256" data-name="Path 256" d="M168.769,176.319a8.253,8.253,0,1,1,9.092-8.211,8.346,8.346,0,0,1-.065,1.041.416.416,0,0,0,.826.1,9.225,9.225,0,0,0,.072-1.145,9.086,9.086,0,1,0-10.009,9.04l.042,0a.416.416,0,0,0,.041-.831Z" transform="translate(-105.792 -108.633)" fill="#deab52"/>
    <path id="Path_257" data-name="Path 257" d="M217.33,210.342a.416.416,0,1,0,.833,0,6.32,6.32,0,1,0-7.421,6.224.416.416,0,1,0,.144-.82,5.487,5.487,0,1,1,6.444-5.4Z" transform="translate(-148.027 -150.866)" fill="#fff"/>
    <path id="Path_258" data-name="Path 258" d="M254.521,250.33a2.694,2.694,0,0,1,2.691,2.691.416.416,0,1,0,.833,0,3.524,3.524,0,1,0-4.845,3.268.416.416,0,1,0,.312-.772,2.692,2.692,0,0,1,1.009-5.187Z" transform="translate(-190.705 -193.546)" fill="#deab52"/>
    <path id="Path_259" data-name="Path 259" d="M300.263,294.95l-1.857-3.363a2.354,2.354,0,0,0-2.39-1.186l-2.136.312-1.658-2.351a1.362,1.362,0,0,0-1.931-.3,1.371,1.371,0,0,0-.336,1.815l2.757,4.363a.416.416,0,1,0,.7-.445l-2.757-4.362a.533.533,0,0,1,.131-.7.529.529,0,0,1,.75.118l1.805,2.56a.416.416,0,0,0,.4.172l2.389-.349a1.516,1.516,0,0,1,1.541.764l1.857,3.363a.85.85,0,0,1-.212,1.075l-1.817,1.461a.852.852,0,0,1-1.086-.016l-1.451-1.239a1.742,1.742,0,0,0-1.339-.4.9.9,0,0,1-1-1.027l.024-.166a.416.416,0,1,0-.824-.12l-.024.166a1.737,1.737,0,0,0,1.93,1.974.9.9,0,0,1,.7.21l1.452,1.239a1.685,1.685,0,0,0,2.149.032l1.817-1.461A1.681,1.681,0,0,0,300.263,294.95Z" transform="translate(-227.075 -229.481)" fill="#deab52"/>
    <path id="Path_260" data-name="Path 260" d="M49.821,137.093h-1.6a.416.416,0,1,0,0,.833h1.6a.416.416,0,1,0,0-.833Z" transform="translate(0 -88.052)" fill="#deab52"/>
    <path id="Path_261" data-name="Path 261" d="M50.3,218.874l-1.518.519a.416.416,0,1,0,.269.788l1.518-.519a.416.416,0,0,0-.269-.788Z" transform="translate(-0.656 -164.784)" fill="#fff"/>
    <path id="Path_262" data-name="Path 262" d="M48.782,47.7l1.518.519a.416.416,0,1,0,.269-.788l-1.518-.519a.416.416,0,1,0-.269.788Z" transform="translate(-0.656 -3.391)" fill="#fff"/>
  </g>
</svg>
