<svg xmlns="http://www.w3.org/2000/svg" width="24.8" height="18.8" viewBox="0 0 24.8 18.8">
  <g id="id_card" data-name="id card" transform="translate(0.4 -2.6)">
    <path id="Path_247" data-name="Path 247" d="M21,3H3A3,3,0,0,0,0,6V18a3,3,0,0,0,3,3H21a3,3,0,0,0,3-3V6A3,3,0,0,0,21,3Zm1,15a1,1,0,0,1-1,1H3a1,1,0,0,1-1-1V6A1,1,0,0,1,3,5H21a1,1,0,0,1,1,1Z" fill="#165248" stroke="#fff" stroke-width="0.8"/>
    <path id="Path_248" data-name="Path 248" d="M10.38,11.8a3,3,0,1,0-4.76,0C3.91,13.08,4,14.68,4,16a1,1,0,0,0,1,1h6a1,1,0,0,0,1-1C12,14.79,12.15,13.13,10.38,11.8ZM7,10a1,1,0,1,1,1,1A1,1,0,0,1,7,10ZM6,15a2,2,0,0,1,4,0Z" fill="#165248" stroke="#fff" stroke-width="0.8"/>
    <path id="Path_249" data-name="Path 249" d="M19,7H14a1,1,0,0,0,0,2h5a1,1,0,0,0,0-2Z" fill="#165248" stroke="#fff" stroke-width="0.8"/>
    <path id="Path_250" data-name="Path 250" d="M19,11H14a1,1,0,0,0,0,2h5a1,1,0,0,0,0-2Z" fill="#165248" stroke="#fff" stroke-width="0.8"/>
    <path id="Path_251" data-name="Path 251" d="M19,15H14a1,1,0,0,0,0,2h5a1,1,0,0,0,0-2Z" fill="#165248" stroke="#fff" stroke-width="0.8"/>
  </g>
</svg>
