<svg xmlns="http://www.w3.org/2000/svg" width="76" height="76" viewBox="0 0 76 76">
  <g id="Group_195" data-name="Group 195" transform="translate(4487.523 20524)">
    <path id="Path_268" data-name="Path 268" d="M52.429,11.714H12.357a2.357,2.357,0,1,1,0-4.714H52.429a2.357,2.357,0,0,1,0,4.714Z" transform="translate(-4473.679 -20514.498)" fill="#165248"/>
    <path id="Path_269" data-name="Path 269" d="M12.429,11.714H5.357A2.357,2.357,0,1,1,5.357,7h7.072a2.357,2.357,0,0,1,0,4.714Z" transform="translate(-4483.179 -20514.498)" fill="#165248"/>
    <path id="Path_270" data-name="Path 270" d="M45.429,19.714H5.357a2.357,2.357,0,0,1,0-4.714H45.429a2.357,2.357,0,1,1,0,4.714Z" transform="translate(-4483.179 -20503.641)" fill="#deab52"/>
    <path id="Path_271" data-name="Path 271" d="M21.858,27.714H5.357a2.357,2.357,0,1,1,0-4.714h16.5a2.357,2.357,0,0,1,0,4.714Z" transform="translate(-4483.179 -20492.785)" fill="#165248"/>
    <path id="Path_272" data-name="Path 272" d="M13.072,19.143a7.072,7.072,0,1,1,7.072-7.072A7.072,7.072,0,0,1,13.072,19.143Zm0-9.429a2.357,2.357,0,1,0,2.357,2.357A2.357,2.357,0,0,0,13.072,9.714Z" transform="translate(-4479.107 -20517.213)" fill="#deab52"/>
    <path id="Path_273" data-name="Path 273" d="M27.072,27.143a7.072,7.072,0,1,1,7.072-7.072A7.072,7.072,0,0,1,27.072,27.143Zm0-9.429a2.357,2.357,0,1,0,2.357,2.357A2.357,2.357,0,0,0,27.072,17.714Z" transform="translate(-4460.107 -20506.357)" fill="#165248"/>
    <path id="Path_274" data-name="Path 274" d="M17.072,35.143a7.072,7.072,0,1,1,7.072-7.072A7.072,7.072,0,0,1,17.072,35.143Zm0-9.429a2.357,2.357,0,1,0,2.357,2.357A2.357,2.357,0,0,0,17.072,25.714Z" transform="translate(-4473.679 -20495.498)" fill="#deab52"/>
    <path id="Path_275" data-name="Path 275" d="M33.429,19.714H26.357a2.357,2.357,0,0,1,0-4.714h7.072a2.357,2.357,0,0,1,0,4.714Z" transform="translate(-4454.678 -20503.641)" fill="#deab52"/>
    <path id="Path_276" data-name="Path 276" d="M47,27.714H16.357a2.357,2.357,0,1,1,0-4.714H47a2.357,2.357,0,1,1,0,4.714Z" transform="translate(-4468.25 -20492.785)" fill="#165248"/>
    <g id="frame" transform="translate(-4487.463 -20524)">
      <rect id="Rectangle_1483" data-name="Rectangle 1483" width="76" height="76" transform="translate(-0.061)" fill="none"/>
    </g>
  </g>
</svg>
