<svg xmlns="http://www.w3.org/2000/svg" width="22" height="23" viewBox="0 0 22 23">
  <g id="Group_247" data-name="Group 247" transform="translate(-330 -132)">
    <path id="Path_287" data-name="Path 287" d="M11,0A11.258,11.258,0,0,1,22,11.5,11.258,11.258,0,0,1,11,23,11.258,11.258,0,0,1,0,11.5,11.258,11.258,0,0,1,11,0Z" transform="translate(330 132)" fill="#deab52"/>
    <path id="Path_291" data-name="Path 291" d="M-1.443-.151a.45.45,0,0,0,.636,0L4.368-5.326a.45.45,0,0,0,0-.636L3.732-6.6a.45.45,0,0,0-.636,0l-4.22,4.22L-3.1-4.349a.45.45,0,0,0-.636,0l-.636.636a.45.45,0,0,0,0,.636Z" transform="translate(341 147)" fill="#fff"/>
  </g>
</svg>
