<svg xmlns="http://www.w3.org/2000/svg" width="43.956" height="48.45" viewBox="0 0 43.956 48.45">
  <g id="_2538673_biometric_finger_fingerprint_identity_thumb_icon" data-name="2538673_biometric_finger_fingerprint_identity_thumb_icon" transform="translate(-6.947 -5)">
    <g id="Group_69" data-name="Group 69" transform="translate(6.947 5)">
      <path id="Path_235" data-name="Path 235" d="M8.1,21.149A1.153,1.153,0,0,0,9.254,20V13.286a6.237,6.237,0,0,1,6.455-5.979h6.234a1.154,1.154,0,1,0,0-2.307H15.709a8.544,8.544,0,0,0-8.762,8.287V20A1.153,1.153,0,0,0,8.1,21.149Z" transform="translate(-6.947 -5)" fill="#165248"/>
    </g>
    <g id="Group_70" data-name="Group 70" transform="translate(6.947 37.3)">
      <path id="Path_236" data-name="Path 236" d="M21.943,46.843H15.709a6.237,6.237,0,0,1-6.455-5.979V34.154a1.154,1.154,0,1,0-2.307,0v6.709a8.544,8.544,0,0,0,8.762,8.287h6.234a1.154,1.154,0,1,0,0-2.307Z" transform="translate(-6.947 -33)" fill="#165248"/>
    </g>
    <g id="Group_71" data-name="Group 71" transform="translate(34.754 5)">
      <path id="Path_237" data-name="Path 237" d="M38.44,5H32.206a1.154,1.154,0,1,0,0,2.307H38.44A6.237,6.237,0,0,1,44.9,13.286V20A1.154,1.154,0,1,0,47.2,20V13.286A8.544,8.544,0,0,0,38.44,5Z" transform="translate(-31.053 -5)" fill="#165248"/>
    </g>
    <g id="Group_72" data-name="Group 72" transform="translate(34.754 37.3)">
      <path id="Path_238" data-name="Path 238" d="M46.049,33A1.153,1.153,0,0,0,44.9,34.154v6.709a6.237,6.237,0,0,1-6.455,5.979H32.206a1.154,1.154,0,1,0,0,2.307H38.44A8.544,8.544,0,0,0,47.2,40.863V34.154A1.153,1.153,0,0,0,46.049,33Z" transform="translate(-31.053 -33)" fill="#165248"/>
    </g>
    <g id="Group_73" data-name="Group 73" transform="translate(25.525 25.764)">
      <path id="Path_239" data-name="Path 239" d="M23.515,23.232a1.152,1.152,0,0,0-.231,1.614,18.132,18.132,0,0,1,3.23,9.69,1.154,1.154,0,0,0,2.307,0,20.289,20.289,0,0,0-3.692-11.074A1.151,1.151,0,0,0,23.515,23.232Z" transform="translate(-23.052 -23)" fill="#deab52"/>
    </g>
    <g id="Group_74" data-name="Group 74" transform="translate(20.821 19.74)">
      <path id="Path_240" data-name="Path 240" d="M22.009,18.156c-2.339,1.169-3.381,3.539-2.933,6.675a14.992,14.992,0,0,0,1.264,4.1A1.154,1.154,0,0,0,22.4,27.9c-.029-.059-2.888-5.92.615-7.671.151-.066,3.728-1.553,7.7,6.4a1.154,1.154,0,0,0,2.064-1.032C27.714,15.449,22.239,18.043,22.009,18.156Z" transform="translate(-18.975 -17.778)" fill="#deab52"/>
    </g>
    <g id="Group_75" data-name="Group 75" transform="translate(30.144 15.383)">
      <path id="Path_241" data-name="Path 241" d="M27.792,16.231c.341.134,8.334,3.466,6.191,19.535a1.153,1.153,0,0,0,.991,1.3,1.179,1.179,0,0,0,.153.01,1.154,1.154,0,0,0,1.142-1c2.4-18.006-7.248-21.842-7.659-22a1.154,1.154,0,0,0-.819,2.157Z" transform="translate(-27.057 -14.001)" fill="#deab52"/>
    </g>
    <g id="Group_76" data-name="Group 76" transform="translate(16.399 27.33)">
      <path id="Path_242" data-name="Path 242" d="M16.134,24.37a1.153,1.153,0,0,0-.982,1.3,20.262,20.262,0,0,0,3.487,8.946,1.153,1.153,0,0,0,1.827-1.408,18.267,18.267,0,0,1-3.029-7.857A1.148,1.148,0,0,0,16.134,24.37Z" transform="translate(-15.141 -24.357)" fill="#deab52"/>
    </g>
    <g id="Group_77" data-name="Group 77" transform="translate(16.297 14.229)">
      <path id="Path_243" data-name="Path 243" d="M15.067,20.893a1.153,1.153,0,0,0,.956,1.321,1.131,1.131,0,0,0,.184.015,1.154,1.154,0,0,0,1.138-.971c.039-.243,1.033-5.95,8.089-5.95a1.154,1.154,0,1,0,0-2.307C16.434,13,15.08,20.814,15.067,20.893Z" transform="translate(-15.053 -13.001)" fill="#deab52"/>
    </g>
    <g id="Group_78" data-name="Group 78" transform="translate(12.837 44.221)">
      <path id="Path_244" data-name="Path 244" d="M13.206,39a1.154,1.154,0,0,0,0,2.307h1.032a1.154,1.154,0,0,0,0-2.307Z" transform="translate(-12.053 -39)" fill="#deab52"/>
    </g>
    <g id="Group_79" data-name="Group 79" transform="translate(26.163 44.221)">
      <path id="Path_245" data-name="Path 245" d="M25.791,39H24.759a1.154,1.154,0,0,0,0,2.307h1.032a1.154,1.154,0,0,0,0-2.307Z" transform="translate(-23.605 -39)" fill="#165248"/>
    </g>
    <g id="Group_80" data-name="Group 80" transform="translate(39.49 44.221)">
      <path id="Path_246" data-name="Path 246" d="M36.312,41.308h1.032a1.154,1.154,0,0,0,0-2.307H36.312a1.154,1.154,0,1,0,0,2.307Z" transform="translate(-35.158 -39)" fill="#deab52"/>
    </g>
  </g>
</svg>
