<svg xmlns="http://www.w3.org/2000/svg" width="23.581" height="23.58" viewBox="0 0 23.581 23.58">
  <g id="_172517_phone_icon" data-name="172517_phone_icon" transform="translate(0.494 0.493)">
    <rect id="Rectangle_1462" data-name="Rectangle 1462" width="22" height="22" transform="translate(0.594 0.328)" fill="none"/>
    <path id="Path_252" data-name="Path 252" d="M19.074,23.58h-.058a9.032,9.032,0,0,1-3.779-1.013,30.669,30.669,0,0,1-8.074-6.151,30.665,30.665,0,0,1-6.15-8.076A9.024,9.024,0,0,1,0,4.56V4.546c-.022-.673.452-1.423,1.583-2.509A18.946,18.946,0,0,1,3.494.432,2.3,2.3,0,0,1,4.808,0,1.751,1.751,0,0,1,6.241.677C6.509,1.048,9.053,4.9,9.33,5.341a2.188,2.188,0,0,1-.1,2.178c-.175.334-.707,1.273-1.04,1.857a28.9,28.9,0,0,0,2.827,3.183A29.029,29.029,0,0,0,14.2,15.387c.585-.333,1.524-.865,1.859-1.041A2.752,2.752,0,0,1,17.328,14a1.691,1.691,0,0,1,.9.237c.465.284,4.31,2.841,4.665,3.09a1.7,1.7,0,0,1,.684,1.256,2.283,2.283,0,0,1-.43,1.5,18.93,18.93,0,0,1-1.592,1.9C20.479,23.1,19.739,23.58,19.074,23.58ZM1.794,4.553c.141,3.411,3.682,7.641,6.636,10.6s7.182,6.5,10.594,6.638a5.1,5.1,0,0,0,1.351-1.167,17.236,17.236,0,0,0,1.3-1.561.514.514,0,0,0,.113-.31c-.59-.4-3.885-2.593-4.458-2.953h0a1.027,1.027,0,0,0-.431.135c-.464.244-2.275,1.28-2.293,1.291l-.451.258-.448-.263a23.317,23.317,0,0,1-3.953-3.39,23.211,23.211,0,0,1-3.39-3.953L6.1,9.425l.258-.451c.01-.018,1.047-1.829,1.289-2.29a1.082,1.082,0,0,0,.14-.431c-.4-.624-2.552-3.881-2.949-4.459l-.028,0A.515.515,0,0,0,4.52,1.9,17.265,17.265,0,0,0,2.96,3.2,5.084,5.084,0,0,0,1.794,4.553Z" transform="translate(-0.493 -0.494)" fill="#165248"/>
  </g>
</svg>
