<svg xmlns="http://www.w3.org/2000/svg" width="22.652" height="21.142" viewBox="0 0 22.652 21.142">
  <g id="listing_search_magnifier_magnifying_glass_loupe" transform="translate(-1 -2)">
    <g id="Group_216" data-name="Group 216" transform="translate(1 2)">
      <g id="tax_x2C__duty_x2C__charge_x2C__percent_1_">
        <g id="white_paper_1_">
          <g id="digital_key_1_">
            <g id="Group_215" data-name="Group 215">
              <g id="Group_212" data-name="Group 212" transform="translate(19.632)">
                <g id="Group_211" data-name="Group 211">
                  <path id="Path_279" data-name="Path 279" d="M29.643,5.02a.378.378,0,0,0,.378-.378V3.888A1.889,1.889,0,0,0,28.133,2h-.755a.378.378,0,1,0,0,.755h.755a1.134,1.134,0,0,1,1.133,1.133v.755A.378.378,0,0,0,29.643,5.02Z" transform="translate(-27 -2)" fill="#fff"/>
                </g>
              </g>
              <g id="Group_214" data-name="Group 214" transform="translate(0 18.121)">
                <g id="Group_213" data-name="Group 213">
                  <path id="Path_280" data-name="Path 280" d="M1,27.133v-.755A.378.378,0,0,1,1.378,26H17.234a.378.378,0,0,1,.378.378v.755a1.134,1.134,0,0,0,1.133,1.133.378.378,0,1,1,0,.755H2.888A1.889,1.889,0,0,1,1,27.133Zm15.856,0v-.378H1.755v.378a1.134,1.134,0,0,0,1.133,1.133H17.235A1.879,1.879,0,0,1,16.856,27.133Z" transform="translate(-1 -26)" fill="#fff"/>
                </g>
              </g>
            </g>
          </g>
        </g>
      </g>
    </g>
    <g id="Group_228" data-name="Group 228" transform="translate(7.04 4.265)">
      <g id="Group_223" data-name="Group 223">
        <g id="Group_222" data-name="Group 222">
          <g id="Group_218" data-name="Group 218" transform="translate(9.714 9.712)">
            <g id="Group_217" data-name="Group 217">
              <path id="Path_281" data-name="Path 281" d="M21.975,17.974a.379.379,0,0,0,0,.535l1.068,1.068a.377.377,0,0,0,.534-.534l-1.068-1.068A.376.376,0,0,0,21.975,17.974Z" transform="translate(-21.865 -17.863)" fill="#fff"/>
            </g>
          </g>
          <g id="Group_220" data-name="Group 220">
            <g id="Group_219" data-name="Group 219">
              <path id="Path_282" data-name="Path 282" d="M15.04,17.081A6.04,6.04,0,1,1,18.518,6.1a.377.377,0,1,1-.435.616,5.276,5.276,0,1,0,2,2.734.378.378,0,0,1,.72-.227,6.045,6.045,0,0,1-5.763,7.857Z" transform="translate(-9 -5)" fill="#fff"/>
            </g>
          </g>
          <g id="Group_221" data-name="Group 221" transform="translate(10.571 10.571)">
            <path id="Path_283" data-name="Path 283" d="M24.51,19.755a.753.753,0,0,1,.534.221L28.064,23A.755.755,0,1,1,27,24.064l-3.02-3.02a.755.755,0,0,1,.534-1.289Zm0-.755a1.51,1.51,0,0,0-1.068,2.578l3.02,3.02A1.51,1.51,0,1,0,28.6,22.463l-3.02-3.02A1.5,1.5,0,0,0,24.51,19Z" transform="translate(-23 -19)" fill="#fff"/>
          </g>
        </g>
      </g>
      <g id="Group_227" data-name="Group 227" transform="translate(3.398 1.51)">
        <g id="Group_226" data-name="Group 226">
          <g id="Group_225" data-name="Group 225">
            <g id="Group_224" data-name="Group 224">
              <path id="Path_284" data-name="Path 284" d="M15.765,13.8h-.009a.38.38,0,0,1-.282-.136l-1.888-2.265a.378.378,0,0,1,.581-.484l1.611,1.934,5.372-5.722a.377.377,0,1,1,.556.51l-5.662,6.04A.377.377,0,0,1,15.765,13.8Z" transform="translate(-13.5 -7)" fill="#deab52"/>
            </g>
          </g>
        </g>
      </g>
    </g>
    <g id="Group_229" data-name="Group 229" transform="translate(4.775 2)">
      <path id="Path_285" data-name="Path 285" d="M22.989,2.755a.378.378,0,1,0,0-.755H7.888A1.889,1.889,0,0,0,6,3.888v15.1a.378.378,0,1,0,.755,0V3.888A1.134,1.134,0,0,1,7.888,2.755H21.48A1.881,1.881,0,0,0,21.1,3.888V13.7a.378.378,0,0,0,.378.378h0a.378.378,0,0,0,.378-.378V3.888A1.134,1.134,0,0,1,22.989,2.755Z" transform="translate(-6 -2)" fill="#deab52"/>
      <path id="Path_286" data-name="Path 286" d="M24.071,28.51H22.75v.755h1.321a1.889,1.889,0,0,0,1.888-1.888h0A.378.378,0,0,0,25.581,27h0a.378.378,0,0,0-.378.378h0A1.134,1.134,0,0,1,24.071,28.51Z" transform="translate(-10.103 -8.123)" fill="#deab52"/>
    </g>
  </g>
</svg>
