<svg xmlns="http://www.w3.org/2000/svg" width="9" height="7.313" viewBox="0 0 9 7.313">
  <path id="Path_289" data-name="Path 289" d="M1.406-1.406H.281A.281.281,0,0,0,0-1.125V0A.281.281,0,0,0,.281.281H1.406A.281.281,0,0,0,1.688,0V-1.125A.281.281,0,0,0,1.406-1.406Zm0-5.625H.281A.281.281,0,0,0,0-6.75v1.125a.281.281,0,0,0,.281.281H1.406a.281.281,0,0,0,.281-.281V-6.75A.281.281,0,0,0,1.406-7.031Zm0,2.813H.281A.281.281,0,0,0,0-3.937v1.125a.281.281,0,0,0,.281.281H1.406a.281.281,0,0,0,.281-.281V-3.937A.281.281,0,0,0,1.406-4.219ZM8.719-1.125H3.094a.281.281,0,0,0-.281.281v.563A.281.281,0,0,0,3.094,0H8.719A.281.281,0,0,0,9-.281V-.844A.281.281,0,0,0,8.719-1.125Zm0-5.625H3.094a.281.281,0,0,0-.281.281v.563a.281.281,0,0,0,.281.281H8.719A.281.281,0,0,0,9-5.906v-.562A.281.281,0,0,0,8.719-6.75Zm0,2.813H3.094a.281.281,0,0,0-.281.281v.563a.281.281,0,0,0,.281.281H8.719A.281.281,0,0,0,9-3.094v-.562A.281.281,0,0,0,8.719-3.937Z" transform="translate(0 7.031)" fill="#165248"/>
</svg>
