<svg xmlns="http://www.w3.org/2000/svg" width="14.659" height="23.74" viewBox="0 0 14.659 23.74">
  <g id="location" transform="translate(-23.142 -4.38)">
    <path id="Path_277" data-name="Path 277" d="M32.446,21.454l3.816-6.137a.348.348,0,0,0,.031-.062,6.82,6.82,0,1,0-11.624,0,.394.394,0,0,0,.027.055l3.679,6.158c-2.856.4-4.735,1.578-4.735,3,0,1.765,3,3.148,6.829,3.148S37.3,26.237,37.3,24.472C37.3,23.041,35.335,21.84,32.446,21.454Zm-7.091-6.541a6.056,6.056,0,1,1,10.252,0,.368.368,0,0,0-.032.063l-4.032,6.483c-.061.093-.073.114-.147.236l-1.018,1.637-4.99-8.35A.384.384,0,0,0,25.355,14.913Zm5.116,11.944c-3.575,0-6.066-1.257-6.066-2.384,0-1.023,1.876-1.988,4.4-2.286l1.24,2.075a.381.381,0,0,0,.324.186h0a.382.382,0,0,0,.324-.18l1.3-2.1c2.564.278,4.537,1.266,4.537,2.3C36.537,25.6,34.046,26.856,30.472,26.856Z" fill="#deab52" stroke="#deab52" stroke-width="1"/>
    <path id="Path_278" data-name="Path 278" d="M45.69,24.409a2.48,2.48,0,1,0-2.48,2.48A2.482,2.482,0,0,0,45.69,24.409Zm-4.2,0a1.716,1.716,0,1,1,1.716,1.716A1.718,1.718,0,0,1,41.495,24.409Z" transform="translate(-12.739 -12.709)" fill="#165248" stroke="#165248" stroke-width="1"/>
  </g>
</svg>
