<svg xmlns="http://www.w3.org/2000/svg" width="46" height="46" viewBox="0 0 46 46">
  <g id="Group_242" data-name="Group 242" transform="translate(-351 -45)">
    <circle id="Ellipse_5" data-name="Ellipse 5" cx="23" cy="23" r="23" transform="translate(351 45)" fill="#deab52"/>
    <g id="Layer_19" data-name="Layer 19" transform="translate(360 55)">
      <path id="Path_231" data-name="Path 231" d="M14.4,13.8a6.4,6.4,0,1,1,6.4-6.4A6.4,6.4,0,0,1,14.4,13.8Zm0-11.2a4.8,4.8,0,1,0,4.8,4.8A4.8,4.8,0,0,0,14.4,2.6Z" transform="translate(-0.8)" fill="#fff"/>
      <path id="Path_232" data-name="Path 232" d="M19.2,28.39H8a4,4,0,0,1-4-4v-3.2a.8.8,0,0,1,.392-.688l4-2.4a.8.8,0,0,1,.8,1.376L5.6,21.646V24.39A2.4,2.4,0,0,0,8,26.79H19.2a2.4,2.4,0,0,0,2.4-2.4V21.646l-3.608-2.168a.8.8,0,1,1,.8-1.376l4,2.4a.8.8,0,0,1,.408.688v3.2A4,4,0,0,1,19.2,28.39Z" transform="translate(0 -3.39)" fill="#fff"/>
    </g>
  </g>
</svg>
