<svg xmlns="http://www.w3.org/2000/svg" width="18" height="18" viewBox="0 0 18 18">
  <g id="Group_245" data-name="Group 245" transform="translate(-350 -534)">
    <circle id="Ellipse_13" data-name="Ellipse 13" cx="9" cy="9" r="9" transform="translate(350 534)" fill="#deab52"/>
    <path id="Path_290" data-name="Path 290" d="M6.286-1.611a.123.123,0,0,0-.036.087V.25H.75v-5.5H4.523a.124.124,0,0,0,.089-.036l.5-.5A.126.126,0,0,0,5.023-6H.75A.75.75,0,0,0,0-5.25V.25A.75.75,0,0,0,.75,1h5.5A.75.75,0,0,0,7,.25V-2.022a.126.126,0,0,0-.214-.089ZM8.733-4.764a.915.915,0,0,0,0-1.294l-.675-.675a.912.912,0,0,0-1.292,0l-4.1,4.1L2.5-1.217A.646.646,0,0,0,3.217-.5L4.63-.661Zm-1.544.483-2.9,2.9-1.02.114.114-1.02,2.9-2.9ZM8.2-5.527a.166.166,0,0,1,0,.233l-.483.483-.908-.908L7.3-6.2a.163.163,0,0,1,.231,0Z" transform="translate(355 546)" fill="#fff"/>
  </g>
</svg>
