<svg xmlns="http://www.w3.org/2000/svg" width="67.983" height="69.461" viewBox="0 0 67.983 69.461">
  <g id="_21" data-name="21" transform="translate(-47.801 -43.274)">
    <path id="Path_254" data-name="Path 254" d="M117.944,69.988V44.38a1.106,1.106,0,0,0-1.106-1.106h-3.686a5.125,5.125,0,0,0-5.119,5.119V71a5.125,5.125,0,0,0,5.119,5.119h.634a1.106,1.106,0,1,0,0-2.212h-.634A2.911,2.911,0,0,1,110.245,71V48.393a2.911,2.911,0,0,1,2.907-2.908h2.58v24.5a1.106,1.106,0,1,0,2.212,0Z" transform="translate(-50.398)" fill="#165248"/>
    <path id="Path_255" data-name="Path 255" d="M186.054,56.088l19.719,6.983V67.9a1.106,1.106,0,1,0,2.212,0V63.395h3a1.88,1.88,0,0,1,1.878,1.878v3.893a1.106,1.106,0,1,0,2.212,0V65.273a4.1,4.1,0,0,0-4.09-4.09h-3.913L186.792,54a1.106,1.106,0,1,0-.738,2.085Z" transform="translate(-115.065 -8.924)" fill="#165248"/>
    <path id="Path_256" data-name="Path 256" d="M182.425,204.96a21.92,21.92,0,1,1,24.148-21.807,22.164,22.164,0,0,1-.173,2.766,1.106,1.106,0,0,0,2.195.276,24.5,24.5,0,0,0,.19-3.042A24.131,24.131,0,1,0,182.2,207.161c.038,0,.075.006.112.006a1.106,1.106,0,0,0,.11-2.206Z" transform="translate(-94.318 -96.85)" fill="#deab52"/>
    <path id="Path_257" data-name="Path 257" d="M236.88,220.806a1.106,1.106,0,1,0,2.212,0,16.784,16.784,0,1,0-19.71,16.53,1.106,1.106,0,1,0,.383-2.179,14.573,14.573,0,1,1,17.115-14.351Z" transform="translate(-131.972 -134.503)" fill="#165248"/>
    <path id="Path_258" data-name="Path 258" d="M260.357,251.709a7.156,7.156,0,0,1,7.148,7.148,1.106,1.106,0,1,0,2.212,0,9.36,9.36,0,1,0-12.868,8.679,1.106,1.106,0,1,0,.829-2.05,7.149,7.149,0,0,1,2.679-13.777Z" transform="translate(-170.021 -172.554)" fill="#deab52"/>
    <path id="Path_259" data-name="Path 259" d="M317.671,306.814l-4.932-8.931a6.252,6.252,0,0,0-6.348-3.149l-5.672.829-4.4-6.243a3.617,3.617,0,0,0-5.128-.81,3.64,3.64,0,0,0-.891,4.82l7.323,11.588a1.106,1.106,0,1,0,1.87-1.182l-7.321-11.585a1.415,1.415,0,0,1,.347-1.872,1.406,1.406,0,0,1,1.992.315l4.794,6.8a1.1,1.1,0,0,0,1.064.457l6.344-.928a4.028,4.028,0,0,1,4.091,2.03l4.932,8.931a2.257,2.257,0,0,1-.562,2.855l-4.825,3.879a2.262,2.262,0,0,1-2.884-.042l-3.855-3.291a4.627,4.627,0,0,0-3.555-1.07,2.4,2.4,0,0,1-2.665-2.728l.064-.441a1.106,1.106,0,1,0-2.189-.318l-.064.441a4.613,4.613,0,0,0,5.125,5.241,2.4,2.4,0,0,1,1.848.557l3.855,3.291a4.476,4.476,0,0,0,5.706.084l4.825-3.879A4.465,4.465,0,0,0,317.671,306.814Z" transform="translate(-202.447 -204.592)" fill="#deab52"/>
    <path id="Path_260" data-name="Path 260" d="M53.167,137.093h-4.26a1.106,1.106,0,1,0,0,2.212h4.26a1.106,1.106,0,0,0,0-2.212Z" transform="translate(0 -78.502)" fill="#deab52"/>
    <path id="Path_261" data-name="Path 261" d="M53.28,218.912l-4.031,1.378a1.106,1.106,0,1,0,.716,2.093L54,221a1.106,1.106,0,0,0-.716-2.093Z" transform="translate(-0.585 -146.912)" fill="#165248"/>
    <path id="Path_262" data-name="Path 262" d="M49.249,49.04l4.031,1.378A1.106,1.106,0,1,0,54,48.325l-4.031-1.378a1.106,1.106,0,1,0-.716,2.093Z" transform="translate(-0.585 -3.023)" fill="#165248"/>
  </g>
</svg>
