<svg xmlns="http://www.w3.org/2000/svg" width="20.001" height="20" viewBox="0 0 20.001 20">
  <g id="_21-List" data-name="21-List" transform="translate(-0.037)">
    <path id="Line_2" data-name="Line 2" d="M13.914.739H0V-1H13.914Z" transform="translate(6.124 1.87)" fill="#fff"/>
    <path id="Line_3" data-name="Line 3" d="M6.957.739H0V-1H6.957Z" transform="translate(6.124 4.479)" fill="#deab52"/>
    <path id="Line_4" data-name="Line 4" d="M13.914.739H0V-1H13.914Z" transform="translate(6.124 9.696)" fill="#deab52"/>
    <path id="Line_5" data-name="Line 5" d="M6.957.739H0V-1H6.957Z" transform="translate(6.124 12.436)" fill="#fff"/>
    <path id="Line_6" data-name="Line 6" d="M13.914.739H0V-1H13.914Z" transform="translate(6.124 16.653)" fill="#fff"/>
    <path id="Line_7" data-name="Line 7" d="M6.957.739H0V-1H6.957Z" transform="translate(6.124 19.262)" fill="#deab52"/>
    <path id="Ellipse_7" data-name="Ellipse 7" d="M1.609-1A2.609,2.609,0,1,1-1,1.609,2.612,2.612,0,0,1,1.609-1Zm0,3.479a.87.87,0,1,0-.87-.87A.871.871,0,0,0,1.609,2.479Z" transform="translate(1.037 1)" fill="#deab52"/>
    <path id="Ellipse_8" data-name="Ellipse 8" d="M1.609-1A2.609,2.609,0,1,1-1,1.609,2.612,2.612,0,0,1,1.609-1Zm0,3.479a.87.87,0,1,0-.87-.87A.871.871,0,0,0,1.609,2.479Z" transform="translate(1.037 8.827)" fill="#fff"/>
    <path id="Ellipse_9" data-name="Ellipse 9" d="M1.609-1A2.609,2.609,0,1,1-1,1.609,2.612,2.612,0,0,1,1.609-1Zm0,3.479a.87.87,0,1,0-.87-.87A.871.871,0,0,0,1.609,2.479Z" transform="translate(1.037 15.784)" fill="#deab52"/>
  </g>
</svg>
