<svg id="Group_114" data-name="Group 114" xmlns="http://www.w3.org/2000/svg" width="88" height="94" viewBox="0 0 88 94">
  <ellipse id="Ellipse_5" data-name="Ellipse 5" cx="44" cy="47" rx="44" ry="47" transform="translate(0 0)" fill="#deab52"/>
  <g id="Layer_19" data-name="Layer 19" transform="translate(22.767 21.455)">
    <path id="Path_231" data-name="Path 231" d="M20.652,26.3A12.652,12.652,0,1,1,33.3,13.652,12.652,12.652,0,0,1,20.652,26.3Zm0-22.142a9.489,9.489,0,1,0,9.489,9.489A9.489,9.489,0,0,0,20.652,4.163Z" transform="translate(-1.674 -1)" fill="#fff"/>
    <path id="Path_232" data-name="Path 232" d="M34.05,38.59H11.908A7.908,7.908,0,0,1,4,30.682V24.356A1.581,1.581,0,0,1,4.775,23l7.908-4.745a1.582,1.582,0,0,1,1.582,2.72l-7.1,4.286v5.425a4.745,4.745,0,0,0,4.745,4.745H34.05a4.745,4.745,0,0,0,4.745-4.745V25.258l-7.133-4.286a1.582,1.582,0,1,1,1.582-2.72L41.151,23a1.582,1.582,0,0,1,.807,1.36v6.326A7.908,7.908,0,0,1,34.05,38.59Z" transform="translate(-4 8.857)" fill="#fff"/>
  </g>
</svg>
